<svg xmlns="http://www.w3.org/2000/svg" viewBox="0 0 225.37 225.36"><defs><style>.cls-1{fill:#fff;}</style></defs><title>logo</title><g id="Layer_2" data-name="Layer 2"><g id="Layer_1-2" data-name="Layer 1"><path class="cls-1" d="M200.64,105.11A24.72,24.72,0,0,0,180,116.21L136.51,97.54a33.66,33.66,0,0,0-3.11-26.29L177.29,38.6a15.1,15.1,0,1,0-6.12-12.09,15,15,0,0,0,1,5.26L128.28,64.42A34.16,34.16,0,0,0,103.66,54c-.25,0-.5,0-.75,0L99,27.89a14.76,14.76,0,1,0-8.47,1.24l3.89,26.13A33.86,33.86,0,0,0,70.65,97l-26,10.69a24.14,24.14,0,1,0,3.27,7.88l26-10.69a34.21,34.21,0,0,0,29.74,17.24c.82,0,1.65-.07,2.46-.12l7.8,38.82a33.23,33.23,0,1,0,10.66-1.77c-.76,0-1.51.07-2.27.11l-7.79-38.82a34.22,34.22,0,0,0,18.61-15L176.6,124a24.73,24.73,0,1,0,24-18.93Z"/></g></g></svg>